<svg viewBox="0 0 155 22" focusable="false" class="chakra-icon css-1ioi62h" xmlns="http://www.w3.org/2000/svg"><path d="M21.6569 0.65918H26.8199V21.3425H21.913L17.8339 11.4086H17.7156V21.3425H12.5526V0.65918H17.7156L21.5583 10.3892H21.6569V0.65918Z"></path><path d="M28.475 21.3425V0.65918H39.4316V5.03307H34.0716V9.38842H38.7813V13.577H34.0716V21.3425H28.475Z"></path><path d="M48.2797 17.2466H44.6538L44.0035 21.3239H38.7025L43.0182 0.65918H50.0927L54.4083 21.3425H48.9497L48.2797 17.2466ZM45.3238 13.299H47.6294L46.5061 6.51574H46.4076L45.3238 13.299Z"></path><path d="M57.0291 21.3425V5.03307H53.0485V0.65918H66.6851V5.03307H62.7045V21.3425H57.0291Z"></path><path d="M11.2521 5.03356V0.659668H8.67058H3.01492H-0.00012207V5.03356H3.01492V16.9691H-0.00012207V21.343H3.01492H8.67058H11.2521V16.9691H8.67058V5.03356H11.2521Z"></path><path d="M122.415 5.03307V0.65918H119.853H114.197H111.162V5.03307H114.197V16.9686H111.162V21.3425H114.197H119.853H122.415V16.9686H119.853V5.03307H122.415Z"></path><path d="M76.2623 15.004V0.65918H81.9574V14.5222C81.9574 19.0443 79.3956 21.5834 74.7843 21.5834C70.2519 21.5834 67.6507 19.0443 67.6507 14.5222V0.65918H73.3458V14.9855C73.3458 16.2273 73.6414 17.191 74.7843 17.191C75.9667 17.191 76.2623 16.2273 76.2623 15.004Z"></path><path d="M91.5546 17.2651H87.9287L87.2784 21.3425H81.9774L86.2931 0.65918H93.3676L97.6832 21.3425H92.2246L91.5546 17.2651ZM88.5987 13.299H90.9043L89.7811 6.51574H89.6825L88.5987 13.299Z"></path><path d="M100.325 21.3425V5.03307H96.3243V0.65918H109.961V5.03307H105.98V21.3425H100.325Z"></path><path d="M139.126 10.9991C139.126 17.9862 136.367 21.5817 131.5 21.5817C126.593 21.5817 123.834 17.9862 123.834 10.9991C123.834 4.03052 126.593 0.416504 131.5 0.416504C136.367 0.416504 139.126 4.03052 139.126 10.9991ZM129.687 10.9991C129.687 15.5212 130.179 17.1522 131.5 17.1522C132.82 17.1522 133.273 15.5027 133.273 10.9991C133.273 6.47693 132.82 4.84599 131.5 4.84599C130.179 4.84599 129.687 6.47693 129.687 10.9991Z"></path><path d="M149.432 0.65918H154.595V21.3425H149.708L145.609 11.4086H145.49V21.3425H140.327V0.65918H145.49L149.333 10.3892H149.432V0.65918Z"></path></svg>
